<svg width="10" height="12" viewBox="0 0 10 12" fill="none" xmlns="http://www.w3.org/2000/svg">
<path d="M0.507906 0.600361L0.507906 11.4007C0.508248 11.51 0.538407 11.6172 0.595135 11.7107C0.651863 11.8042 0.733011 11.8804 0.829846 11.9312C0.926682 11.982 1.03554 12.0054 1.14469 11.9989C1.25385 11.9925 1.35918 11.9564 1.44933 11.8945L9.24955 6.49433C9.57296 6.27052 9.57296 5.73171 9.24955 5.5073L1.44933 0.107147C1.35936 0.0446404 1.25399 0.00798496 1.14465 0.00116339C1.03531 -0.00565818 0.92619 0.0176151 0.82915 0.0684545C0.73211 0.119294 0.650857 0.195755 0.594221 0.289531C0.537585 0.383307 0.507733 0.49081 0.507906 0.600361Z" fill="#1E1E1E"/>
</svg>
