<svg width="10" height="12" viewBox="0 0 10 12" fill="none" xmlns="http://www.w3.org/2000/svg">
<path d="M9.49214 11.3996V0.599333C9.4918 0.489985 9.46164 0.382801 9.40491 0.289318C9.34818 0.195836 9.26703 0.119595 9.1702 0.0688009C9.07336 0.0180073 8.96451 -0.00541496 8.85535 0.00105476C8.74619 0.00752449 8.64087 0.0436411 8.55071 0.105519L0.750491 5.50567C0.427082 5.72948 0.427082 6.26829 0.750491 6.4927L8.55071 11.8929C8.64068 11.9554 8.74606 11.992 8.8554 11.9988C8.96474 12.0057 9.07386 11.9824 9.1709 11.9315C9.26794 11.8807 9.34919 11.8042 9.40582 11.7105C9.46246 11.6167 9.49231 11.5092 9.49214 11.3996Z" fill="#1E1E1E"/>
</svg>
