<svg xmlns="http://www.w3.org/2000/svg" xmlns:xlink="http://www.w3.org/1999/xlink" width="580" height="80" viewBox="0 0 580 80">
  <defs>
    <clipPath id="clip-path">
      <rect id="Rectangle_7" data-name="Rectangle 7" width="579.808" height="80" fill="none"/>
    </clipPath>
    <clipPath id="clip-logo_unboxed_expanded_yellow">
      <rect width="580" height="80"/>
    </clipPath>
  </defs>
  <g id="logo_unboxed_expanded_yellow" clip-path="url(#clip-logo_unboxed_expanded_yellow)">
    <g id="Group_12" data-name="Group 12" transform="translate(0 0)">
      <g id="Group_11" data-name="Group 11" transform="translate(0 0)" clip-path="url(#clip-path)">
        <path id="Path_57" data-name="Path 57" d="M0,80H80V0H0ZM45.238,60.953H22.381A.953.953,0,0,1,21.428,60V42.857a.953.953,0,0,1,.953-.952H45.238a9.524,9.524,0,0,1,0,19.047m13.333-23.81a.953.953,0,0,1-.953.953H34.762a9.524,9.524,0,0,1,0-19.048H57.619a.954.954,0,0,1,.953.953Z" transform="translate(0 0)" fill="#ffd106"/>
        <path id="Path_58" data-name="Path 58" d="M283.329,16.524h8.214l17.234,40.394h-9.29l-3.77-9.022H278.885l-3.77,9.022h-9.02Zm9.425,23.7-5.386-13.061-5.386,13.061Z" transform="translate(52.792 3.279)" fill="#ffd106"/>
        <path id="Path_59" data-name="Path 59" d="M254.3,24.6H242.05V16.525h33.392V24.6H263.189V56.918H254.3Z" transform="translate(48.021 3.279)" fill="#ffd106"/>
        <path id="Path_60" data-name="Path 60" d="M207.444,16.525h8.214l18.715,24.91V16.525h8.887V56.919h-7.676L216.33,31.335V56.919h-8.886Z" transform="translate(41.156 3.279)" fill="#ffd106"/>
        <path id="Path_61" data-name="Path 61" d="M184.343,16.524h8.214l17.234,40.394H200.5l-3.77-9.022H179.9l-3.77,9.022h-9.02Zm9.425,23.7-5.386-13.061L183,40.222Z" transform="translate(33.153 3.279)" fill="#ffd106"/>
        <path id="Path_62" data-name="Path 62" d="M155.317,24.6H143.065V16.525h33.392V24.6H164.2V56.918h-8.886Z" transform="translate(28.383 3.279)" fill="#ffd106"/>
        <path id="Path_63" data-name="Path 63" d="M112.5,16.525h30.969V24.6h-22.08v8.08h17.637v8.078H121.39v8.078h22.083v8.08H112.5Z" transform="translate(22.32 3.279)" fill="#ffd106"/>
        <path id="Path_64" data-name="Path 64" d="M92.02,27.7c0-1.927,1.654-3.124,3.581-3.124h15.4V16.524l-16.83.135A11.231,11.231,0,0,0,82.729,27.7a11.479,11.479,0,0,0,8.753,11.041l9.152,2.155a4.251,4.251,0,0,1,3.234,4.04,4.122,4.122,0,0,1-4.308,3.9H84.076v8.078h16.966a12.062,12.062,0,0,0,11.984-11.983,12.219,12.219,0,0,0-9.425-11.58l-8.887-2.289A3.48,3.48,0,0,1,92.02,27.7" transform="translate(16.413 3.279)" fill="#ffd106"/>
        <path id="Path_65" data-name="Path 65" d="M309.555,26.646a5.74,5.74,0,0,1,5.77-5.77h17.713V16.582H315.191a10.223,10.223,0,0,0-10.2,10.2,10.069,10.069,0,0,0,7.782,9.8l12.749,3.087a6.613,6.613,0,0,1-1.609,13.017H306.335v4.16h17.713a10.889,10.889,0,0,0,2.683-21.47l-12.749-3.087a5.775,5.775,0,0,1-4.428-5.636" transform="translate(60.509 3.29)" fill="#ffd106"/>
        <path id="Path_66" data-name="Path 66" d="M463.3,26.646a5.74,5.74,0,0,1,5.77-5.77h17.714V16.582H468.936a10.223,10.223,0,0,0-10.2,10.2,10.069,10.069,0,0,0,7.782,9.8l12.749,3.087a6.613,6.613,0,0,1-1.609,13.017H460.08v4.16h17.714a10.889,10.889,0,0,0,2.683-21.47l-12.748-3.087a5.775,5.775,0,0,1-4.428-5.636" transform="translate(91.011 3.29)" fill="#ffd106"/>
        <path id="Path_67" data-name="Path 67" d="M364.837,29.6c0,8.684-7.168,13.017-15.737,13.017h-9.759V56.839h-4.562V16.581h15.029c9.007,0,14.931,5.188,15.029,13.017m-4.561,0c0-5.751-3.969-8.723-10.468-8.723H339.341v17.58h10.2c6.671,0,10.736-3.568,10.736-8.857" transform="translate(66.418 3.29)" fill="#ffd106"/>
        <path id="Path_68" data-name="Path 68" d="M403.008,36.821c0,11.091-8.024,20.8-20.262,20.8s-20.532-9.708-20.532-20.8,8.293-20.8,20.532-20.8,20.262,9.711,20.262,20.8m-4.562,0c0-9.134-6.506-16.505-15.7-16.505s-15.97,7.371-15.97,16.505,6.776,16.505,15.97,16.505,15.7-7.369,15.7-16.505" transform="translate(71.861 3.179)" fill="#ffd106"/>
        <path id="Path_69" data-name="Path 69" d="M432.761,28.658c0,6.674-4.54,10.66-10.869,11.809l12.346,16.371h-5.5l-11.809-15.7H405.52v15.7h-4.562V16.581h17.311c4.949,0,8.874,1.493,11.406,4.025a11.381,11.381,0,0,1,3.086,8.052m-4.562,0c0-4.949-3.83-7.784-10.333-7.784H405.52v15.97h12.346c6.044,0,10.333-3.006,10.333-8.186" transform="translate(79.548 3.29)" fill="#ffd106"/>
        <path id="Path_70" data-name="Path 70" d="M443.535,20.875H429.847V16.582h31.8v4.294H448.1V56.839h-4.562Z" transform="translate(85.279 3.29)" fill="#ffd106"/>
      </g>
    </g>
  </g>
</svg>
