<svg width="133" height="40" viewBox="0 0 133 40" fill="none" xmlns="http://www.w3.org/2000/svg">
<mask id="mask0_1003_5439" style="mask-type:luminance" maskUnits="userSpaceOnUse" x="0" y="0" width="133" height="40">
<path d="M132.481 0H0V40H132.481V0Z" fill="white"/>
</mask>
<g mask="url(#mask0_1003_5439)">
<path d="M0 40H40V0H0V40ZM22.6193 30.4763H11.1903C11.0641 30.4762 10.943 30.426 10.8537 30.3367C10.7645 30.2474 10.7143 30.1263 10.7143 30V21.4287C10.7144 21.3025 10.7646 21.1814 10.8538 21.0922C10.9431 21.0029 11.0641 20.9528 11.1903 20.9527H22.6193C23.248 20.9474 23.8715 21.0667 24.4539 21.3036C25.0362 21.5406 25.5659 21.8905 26.0123 22.3332C26.4587 22.7759 26.8131 23.3026 27.0549 23.883C27.2967 24.4633 27.4212 25.0858 27.4212 25.7145C27.4212 26.3432 27.2967 26.9657 27.0549 27.546C26.8131 28.1264 26.4587 28.6531 26.0123 29.0958C25.5659 29.5385 25.0362 29.8884 24.4539 30.1254C23.8715 30.3623 23.248 30.4816 22.6193 30.4763ZM29.286 18.5713C29.2859 18.6975 29.2357 18.8186 29.1465 18.9078C29.0572 18.9971 28.9362 19.0472 28.81 19.0473H17.3807C16.1247 19.0368 14.9237 18.5305 14.0392 17.6386C13.1548 16.7468 12.6585 15.5416 12.6585 14.2855C12.6585 13.0294 13.1548 11.8242 14.0392 10.9324C14.9237 10.0405 16.1247 9.53418 17.3807 9.52367H28.8097C28.9359 9.52376 29.057 9.57398 29.1463 9.6633C29.2355 9.75262 29.2857 9.87373 29.2857 10L29.286 18.5713Z" fill="#FFD106"/>
<path d="M124.441 4.76172H127.036L132.481 17.5237H129.546L128.355 14.6734H123.037L121.846 17.5237H118.996L124.441 4.76172ZM127.419 12.2487L125.717 8.12239L124.017 12.2487H127.419Z" fill="#FFD106"/>
<path d="M113.764 7.31405H109.893V4.76172H120.443V7.31405H116.572V17.5234H113.764V7.31405Z" fill="#FFD106"/>
<path d="M96.7891 4.76172H99.3837L105.297 12.6314V4.76172H108.104V17.5237H105.68L99.5967 9.44139V17.5237H96.7891V4.76172Z" fill="#FFD106"/>
<path d="M86.9642 4.76172H89.5589L95.0042 17.5237H92.0689L90.8779 14.6734H85.5602L84.3689 17.5237H81.5195L86.9642 4.76172ZM89.9419 12.2487L88.2402 8.12239L86.5402 12.2487H89.9419Z" fill="#FFD106"/>
<path d="M76.2854 7.31405H72.4141V4.76172H82.9637V7.31405H79.0927V17.5234H76.2851L76.2854 7.31405Z" fill="#FFD106"/>
<path d="M60.8438 4.76172H70.6281V7.31405H63.6524V9.86672H69.2244V12.4191H63.6514V14.9714H70.6281V17.5241H60.8438V4.76172Z" fill="#FFD106"/>
<path d="M52.5056 8.29238C52.5116 8.15207 52.546 8.01442 52.6068 7.88783C52.6676 7.76123 52.7536 7.64834 52.8594 7.55601C52.9653 7.46368 53.0888 7.39385 53.2224 7.35076C53.3561 7.30768 53.4971 7.29224 53.637 7.30539H58.5036V4.76172L53.1863 4.80439C52.7197 4.79538 52.2558 4.87852 51.8214 5.04907C51.3869 5.21961 50.9904 5.47419 50.6545 5.79824C50.3186 6.12228 50.0499 6.50942 49.8639 6.93746C49.6778 7.36551 49.5781 7.82606 49.5703 8.29272C49.5779 9.09879 49.8538 9.87936 50.3545 10.5111C50.8553 11.1428 51.5522 11.5897 52.3353 11.7811L55.227 12.4617C55.5141 12.5323 55.7698 12.6957 55.9546 12.9264C56.1394 13.1572 56.2429 13.4425 56.249 13.7381C56.2311 14.0818 56.0779 14.4045 55.8228 14.6356C55.5677 14.8667 55.2315 14.9874 54.8876 14.9714H49.996V17.5241H55.3556C56.3579 17.5177 57.3172 17.1167 58.0259 16.408C58.7346 15.6993 59.1356 14.7399 59.142 13.7377C59.1203 12.8842 58.8162 12.0621 58.2775 11.3998C57.7387 10.7375 56.9955 10.2726 56.1643 10.0777L53.3566 9.35438C53.1159 9.29845 52.9011 9.16309 52.7467 8.97013C52.5923 8.77716 52.5074 8.53784 52.5056 8.29072" fill="#FFD106"/>
<path d="M50.9657 25.4394C50.9645 25.1997 51.0108 24.9621 51.102 24.7403C51.1932 24.5186 51.3274 24.3171 51.4969 24.1476C51.6664 23.9781 51.8679 23.8439 52.0896 23.7527C52.3114 23.6615 52.549 23.6152 52.7887 23.6164H58.3847V22.2598H52.7474C51.8935 22.2619 51.0752 22.602 50.4714 23.2058C49.8676 23.8096 49.5275 24.6279 49.5254 25.4818C49.5262 26.1994 49.7695 26.8956 50.2159 27.4575C50.6623 28.0193 51.2855 28.4138 51.9844 28.5768L56.0111 29.5531C56.5027 29.6797 56.9314 29.9809 57.2171 30.4004C57.5029 30.82 57.6261 31.3293 57.5637 31.8331C57.5014 32.3369 57.2577 32.8008 56.8783 33.138C56.4989 33.4753 56.0097 33.6629 55.5021 33.6658H49.9474V34.9801H55.5437C56.3884 34.989 57.2069 34.6868 57.8431 34.1311C58.4794 33.5753 58.8889 32.805 58.9937 31.9667C59.0985 31.1285 58.8912 30.281 58.4114 29.5857C57.9315 28.8905 57.2126 28.3961 56.3917 28.1968L52.3647 27.2198C51.9649 27.124 51.6091 26.8961 51.355 26.5729C51.1009 26.2497 50.9634 25.8502 50.9647 25.4391" fill="#FFD106"/>
<path d="M109.176 25.4394C109.175 25.1996 109.221 24.9619 109.312 24.7401C109.403 24.5183 109.538 24.3167 109.707 24.1472C109.877 23.9776 110.078 23.8433 110.3 23.7522C110.522 23.661 110.76 23.6148 111 23.6161H116.596V22.2598H110.956C110.102 22.2619 109.284 22.602 108.68 23.2058C108.077 23.8096 107.736 24.6279 107.734 25.4818C107.735 26.1994 107.979 26.8956 108.425 27.4575C108.871 28.0193 109.495 28.4138 110.193 28.5768L114.221 29.5531C114.713 29.6797 115.142 29.9809 115.427 30.4004C115.713 30.82 115.836 31.3293 115.774 31.8331C115.712 32.3369 115.468 32.8008 115.089 33.138C114.709 33.4753 114.22 33.6629 113.712 33.6658H108.158V34.9801H113.755C114.599 34.989 115.418 34.6868 116.054 34.1311C116.69 33.5753 117.1 32.805 117.205 31.9667C117.309 31.1285 117.102 30.281 116.622 29.5857C116.143 28.8905 115.424 28.3961 114.603 28.1968L110.575 27.2198C110.175 27.124 109.819 26.8961 109.565 26.5729C109.311 26.2497 109.174 25.8502 109.175 25.4391" fill="#FFD106"/>
<path d="M70.2978 26.3721C70.2978 29.1154 68.0331 30.4844 65.3254 30.4844H62.2424V34.9788H60.8008V22.2598H65.5491C68.3948 22.2598 70.2664 23.8988 70.2978 26.3721ZM68.8558 26.3721C68.8558 24.5551 67.6021 23.6164 65.5488 23.6164H62.2418V29.1701H65.4638C67.5718 29.1701 68.8558 28.0434 68.8558 26.3721Z" fill="#FFD106"/>
<path d="M84.0781 28.6182C84.0781 32.1222 81.5428 35.1895 77.6765 35.1895C73.8101 35.1895 71.1895 32.1229 71.1895 28.6182C71.1895 25.1135 73.8095 22.0469 77.6765 22.0469C81.5435 22.0469 84.0781 25.1135 84.0781 28.6182ZM82.6365 28.6182C82.6365 25.7325 80.5811 23.4035 77.6761 23.4035C74.7711 23.4035 72.6308 25.7325 72.6308 28.6182C72.6308 31.5039 74.7715 33.8329 77.6761 33.8329C80.5808 33.8329 82.6365 31.5045 82.6365 28.6182Z" fill="#FFD106"/>
<path d="M95.9054 26.0754C95.9054 28.1841 94.4721 29.4421 92.4721 29.8061L96.3721 34.9788H94.6338L90.9028 30.0184H87.2991V34.9791H85.8574V22.2598H91.3264C92.8901 22.2598 94.1301 22.7318 94.9301 23.5318C95.5764 24.2188 95.9267 25.1324 95.9054 26.0754ZM94.4638 26.0754C94.4638 24.5118 93.2538 23.6164 91.1994 23.6164H87.2994V28.6618H91.1994C93.1088 28.6618 94.4638 27.7121 94.4638 26.0754Z" fill="#FFD106"/>
<path d="M101.119 23.6164H96.7949V22.2598H106.843V23.6164H102.561V34.9788H101.119V23.6164Z" fill="#FFD106"/>
</g>
</svg>
