<svg width="40" height="28" viewBox="0 0 40 28" fill="none" xmlns="http://www.w3.org/2000/svg">
<g clip-path="url(#clip0_390_12360)">
<path d="M0 0.666016H40V27.3326H0V0.666016Z" fill="#EF3340"/>
<path d="M0 0.666016H40V9.55489H0V0.666016Z" fill="#00B5E2"/>
<path d="M0 18.4443H40V27.3332H0V18.4443Z" fill="#509E2F"/>
<path d="M20.7096 17.2427C18.9162 17.2427 17.466 15.7924 17.466 13.999C17.466 12.2057 18.9162 10.7554 20.7096 10.7554C21.271 10.7554 21.7934 10.8957 22.2535 11.1452C21.5361 10.4435 20.5459 10.0068 19.4621 10.0068C17.2554 10.0068 15.4698 11.7924 15.4698 13.999C15.4698 16.2057 17.2554 17.9912 19.4621 17.9912C20.5459 17.9912 21.5361 17.5546 22.2535 16.8528C21.7934 17.1023 21.271 17.2427 20.7096 17.2427Z" fill="white"/>
<path d="M23.2047 11.7529L23.6336 12.9615L24.7954 12.4079L24.2418 13.5697L25.4503 13.9985L24.2418 14.4274L24.7954 15.5892L23.6336 15.0356L23.2047 16.2441L22.7759 15.0356L21.6141 15.5892L22.1677 14.4274L20.9591 13.9985L22.1677 13.5697L21.6141 12.4079L22.7759 12.9615L23.2047 11.7529Z" fill="white"/>
</g>
<defs>
<clipPath id="clip0_390_12360">
<rect width="40" height="26.6666" fill="white" transform="translate(0 0.666992)"/>
</clipPath>
</defs>
</svg>
