<svg width="40" height="28" viewBox="0 0 40 28" fill="none" xmlns="http://www.w3.org/2000/svg">
<g clip-path="url(#clip0_1039_5166)">
<path d="M1.42224 0.666016H38.7556V27.3327H1.42224V0.666016Z" fill="white"/>
<path d="M17.4222 11.3346H0V16.668H17.4222V27.3347H22.7556V16.668H40.1778V11.3346H22.7556V0.667969H17.4222V11.3346Z" fill="#EB000E"/>
<path d="M30.7555 5.46732L30.4 3.33398H32.1778L31.8222 5.46732L33.9555 5.11176V6.88954L31.8222 6.53399L32.1778 8.66732H30.4L30.7555 6.53399L28.6222 6.88954V5.11176L30.7555 5.46732ZM8.17777 5.46732L7.82221 3.33398H9.59999L9.24443 5.46732L11.3778 5.11176V6.88954L9.24443 6.53399L9.59999 8.66732H7.82221L8.17777 6.53399L6.04443 6.88954V5.11176L8.17777 5.46732ZM8.17777 21.4673L7.82221 19.334H9.59999L9.24443 21.4673L11.3778 21.1118V22.8896L9.24443 22.534L9.59999 24.6673H7.82221L8.17777 22.534L6.04443 22.8896V21.1118L8.17777 21.4673ZM30.7555 21.4673L30.4 19.334H32.1778L31.8222 21.4673L33.9555 21.1118V22.8896L31.8222 22.534L32.1778 24.6673H30.4L30.7555 22.534L28.6222 22.8896V21.1118L30.7555 21.4673Z" fill="#EB000E"/>
</g>
<defs>
<clipPath id="clip0_1039_5166">
<rect width="40" height="26.6667" fill="white" transform="translate(0 0.666992)"/>
</clipPath>
</defs>
</svg>
