<svg width="40" height="28" viewBox="0 0 40 28" fill="none" xmlns="http://www.w3.org/2000/svg">
<g clip-path="url(#clip0_392_12427)">
<path d="M0 0.640625H40.0781V27.3594H0V0.640625Z" fill="#D80027"/>
<path d="M20 27.3125C27.3652 27.3125 33.3359 21.3418 33.3359 13.9766C33.3359 6.61133 27.3652 0.640625 20 0.640625C12.6348 0.640625 6.66406 6.61133 6.66406 13.9766C6.66406 21.3418 12.6348 27.3125 20 27.3125Z" fill="#D80027"/>
<path d="M29.875 13.9766L25.8438 15.875L27.9922 19.7812L23.6094 18.9453L23.0547 23.3672L20 20.1094L16.9453 23.3672L16.3906 18.9453L12.0078 19.7812L14.1562 15.875L10.125 13.9766L14.1562 12.0781L12.0078 8.16406L16.3906 9.00781L16.9453 4.57812L20 7.83594L23.0547 4.57812L23.6094 9.00781L27.9922 8.16406L25.8438 12.0781L29.875 13.9766Z" fill="#FFDA44"/>
<path d="M20.1094 19.5703C23.1987 19.5703 25.7031 17.0659 25.7031 13.9766C25.7031 10.8872 23.1987 8.38281 20.1094 8.38281C17.02 8.38281 14.5156 10.8872 14.5156 13.9766C14.5156 17.0659 17.02 19.5703 20.1094 19.5703Z" fill="#D80027"/>
<path d="M16.7344 13.9766C16.5703 13.9766 16.4141 13.9844 16.25 14C16.2578 14.9375 16.5938 15.7891 17.1563 16.4609C17.4531 15.6562 17.8984 14.9297 18.4609 14.2969C17.9219 14.0859 17.3437 13.9766 16.7344 13.9766ZM18.8125 17.6094C19.2188 17.7578 19.6562 17.8359 20.1094 17.8359C20.5625 17.8359 21 17.7578 21.4062 17.6094C21.1875 16.7422 20.7266 15.9687 20.1094 15.3594C19.4922 15.9687 19.0313 16.7422 18.8125 17.6094ZM23.4531 12.0469C22.7891 10.8906 21.5391 10.1172 20.1094 10.1172C18.6797 10.1172 17.4375 10.8906 16.7656 12.0469C17.9844 12.0547 19.125 12.3828 20.1094 12.9531C21.0937 12.3828 22.2344 12.0469 23.4531 12.0469ZM21.7578 14.2969C22.3203 14.9219 22.7656 15.6562 23.0625 16.4609C23.625 15.7969 23.9609 14.9375 23.9687 14C23.8125 13.9844 23.6484 13.9766 23.4844 13.9766C22.8828 13.9766 22.2969 14.0859 21.7578 14.2969Z" fill="#FFDA44"/>
</g>
<defs>
<clipPath id="clip0_392_12427">
<rect width="40" height="26.7188" fill="white" transform="translate(0 0.640625)"/>
</clipPath>
</defs>
</svg>
