<svg width="40" height="28" viewBox="0 0 40 28" fill="none" xmlns="http://www.w3.org/2000/svg">
<g clip-path="url(#clip0_392_12451)">
<path d="M0 0.666016H40V27.3321H0V0.666016Z" fill="#D80027"/>
<path d="M0 19.2168H40V27.3324H0V19.2168Z" fill="#6DA544"/>
<path d="M0 0.666016H40V8.83124H0V0.666016Z" fill="#338AF3"/>
<path d="M0 10.4727H40V17.477H0V10.4727Z" fill="white"/>
<path d="M0 0.666016H40V8.83124H0V0.666016Z" fill="#338AF3"/>
<path d="M14.7413 4.74734C14.7413 3.49859 15.6189 2.45523 16.7909 2.19937C16.6073 2.15914 16.4199 2.13879 16.232 2.13867C14.7912 2.13867 13.6233 3.30656 13.6233 4.74734C13.6233 6.18812 14.7912 7.35601 16.232 7.35601C16.424 7.35601 16.6109 7.33468 16.7909 7.29531C15.6189 7.03945 14.7413 5.99609 14.7413 4.74734ZM18.3327 5.93304L18.5093 6.47656H19.0808L18.6184 6.81257L18.7951 7.35601L18.3327 7.02007L17.8703 7.35601L18.047 6.81257L17.5846 6.47656H18.1561L18.3327 5.93304ZM20.1567 5.93304L20.3333 6.47656H20.9048L20.4424 6.81257L20.6191 7.35601L20.1567 7.02007L19.6944 7.35601L19.8709 6.81257L19.4087 6.47656H19.9801L20.1567 5.93304ZM21.9807 5.93304L22.1573 6.47656H22.7288L22.2665 6.81257L22.4431 7.35601L21.9807 7.02007L21.5184 7.35601L21.6949 6.81257L21.2326 6.47656H21.8041L21.9807 5.93304ZM23.8047 5.93304L23.9814 6.47656H24.5529L24.0905 6.81257L24.2671 7.35601L23.8047 7.02007L23.3424 7.35601L23.5191 6.81257L23.0567 6.47656H23.6281L23.8047 5.93304ZM25.6288 5.93304L25.8053 6.47656H26.3768L25.9145 6.81257L26.0911 7.35601L25.6288 7.02007L25.1664 7.35601L25.343 6.81257L24.8807 6.47656H25.4521L25.6288 5.93304ZM20.1567 4.03586L20.3333 4.57929H20.9048L20.4424 4.91523L20.6191 5.45875L20.1567 5.12289L19.6944 5.45875L19.8709 4.91523L19.4087 4.57929H19.9801L20.1567 4.03586ZM21.9807 4.03586L22.1573 4.57929H22.7288L22.2665 4.91523L22.4431 5.45875L21.9807 5.12289L21.5184 5.45875L21.6949 4.91523L21.2326 4.57929H21.8041L21.9807 4.03586ZM23.8047 4.03586L23.9814 4.57929H24.5529L24.0905 4.91523L24.2671 5.45875L23.8047 5.12289L23.3424 5.45875L23.5191 4.91523L23.0567 4.57929H23.6281L23.8047 4.03586ZM25.6288 4.03586L25.8053 4.57929H26.3768L25.9145 4.91523L26.0911 5.45875L25.6288 5.12289L25.1664 5.45875L25.343 4.91523L24.8807 4.57929H25.4521L25.6288 4.03586ZM21.9807 2.13867L22.1573 2.68211H22.7288L22.2665 3.01805L22.4431 3.56156L21.9807 3.22562L21.5184 3.56156L21.6949 3.01805L21.2326 2.68211H21.8041L21.9807 2.13867ZM23.8047 2.13867L23.9814 2.68211H24.5529L24.0905 3.01805L24.2671 3.56156L23.8047 3.22562L23.3424 3.56156L23.5191 3.01805L23.0567 2.68211H23.6281L23.8047 2.13867ZM25.6288 2.13867L25.8053 2.68211H26.3768L25.9145 3.01805L26.0911 3.56156L25.6288 3.22562L25.1664 3.56156L25.343 3.01805L24.8807 2.68211H25.4521L25.6288 2.13867Z" fill="white"/>
</g>
<defs>
<clipPath id="clip0_392_12451">
<rect width="40" height="26.6666" fill="white" transform="translate(0 0.666016)"/>
</clipPath>
</defs>
</svg>
